ply
format ascii 1.0
comment VCGLIB generated
element vertex 284
property float x
property float y
property float z
property float nx
property float ny
property float nz
element face 564
property list uchar int vertex_indices
end_header
-0.002750095 0.1164919 0.01467884 -0.1537901 0.7764913 0.6110727 
-0.01237347 0.117864 0 -0.4851922 0.8744075 -2.081645e-08 
0.05731941 0.180696 0 -0.5017189 0.8650306 -1.379149e-08 
0.07107747 0.178403 0.01101364 -0.1967879 0.4008746 0.894748 
0.1169376 0.2095841 0 -0.2471574 0.9689753 2.191176e-08 
0.1229138 0.2040955 0.006427635 -0.09506457 0.4747292 0.8749828 
0.1738113 0.2137189 0 0.06207955 0.9980713 -1.809204e-08 
0.1770251 0.2059191 0.003723569 0.0982319 0.1566208 0.9827617 
0.2063647 0.2049982 0 0.4394904 0.8982473 -5.179056e-08 
0.1747321 0.0990686 0.01176672 0.4133795 0.5620599 0.7163839 
0.1738113 0.1316221 0 0.9406599 0.3393508 3.657382e-08 
0.1930761 0.08668279 0 0.6622673 0.7492678 -1.239309e-08 
0.1031795 0.113278 0.02108842 0.1196917 0.3625568 0.9242437 
0.1302442 0.1518078 0.01197661 0.1669532 0.09206589 0.981657 
0.1495091 0.1728961 0.007245314 0.1261791 0.02940983 0.9915714 
-0.3130695 -0.02006296 0 -0.6489164 0.7608597 0 
-0.3238366 -0.03342669 0.01375803 -0.718482 0.4791668 0.5041653 
-0.3335466 -0.03952252 0 -0.9065449 0.4221095 1.736333e-08 
-0.2791728 0.005655295 0 -0.5620568 0.8270987 -5.069228e-09 
-0.2869775 -0.005200721 0.02522305 -0.5845161 0.6774786 0.4465017 
-0.239528 0.02859507 0.009623398 -0.5042826 0.8299963 0.2383385 
-0.1653545 0.07395757 0 -0.4644188 0.8856157 -3.473916e-08 
-0.1681004 0.06315219 0.03302288 -0.3882986 0.7810256 0.4891044 
-0.2380157 0.02477341 0.02522305 -0.4872022 0.8172495 0.3077941 
-0.08550088 0.1046077 0 -0.2767108 0.9609532 -1.919921e-09 
-0.08766669 0.09511308 0.04035328 -0.1833879 0.7398581 0.6472858 
-0.008256895 0.08944523 0.0444879 -0.01246931 0.6071722 0.7944724 
0.09676995 0.08668279 0.0481531 0.09111891 0.5879183 0.803772 
0.1981134 0.06512493 0.03668808 0.2903822 0.6648718 0.6882032 
0.2971837 0.04363166 0.02108842 0.2820805 0.7810358 0.5571479 
0.296663 0.05128923 0 0.2948876 0.955532 1.60686e-08 
0.3707402 0.02805354 0 0.3433471 0.9392086 2.347189e-08 
0.3695509 0.006873694 0.02659524 0.2944572 0.5884675 0.7529947 
0.4151951 0.01250587 0 0.4060008 0.9138728 5.671242e-08 
0.4168421 -0.01598687 0.02155786 0.2971849 0.3897238 0.8716631 
0.4575964 -0.004192034 0 0.4394486 0.8982677 -3.435495e-08 
0.4609119 -0.03064016 0.01420941 0.1215749 0.4586342 0.8802694 
0.491206 -0.0202529 0 0.4619402 0.8869111 2.163899e-08 
0.4949074 -0.03654575 0.01742323 0.4189622 0.6971671 0.5817463 
0.5136873 -0.04440992 0 0.6983446 0.7157617 5.441236e-09 
0.5074434 -0.04846567 0.01692829 0.5106692 0.7741281 0.3740891 
-0.2435355 0.01372758 0.04035328 -0.4262761 0.721586 0.5455295 
-0.2144684 0.009011352 0.05916675 -0.2544998 0.5528802 0.7934439 
-0.1587634 0.03706644 0.05724429 -0.2213526 0.5002309 0.8371212 
-0.08955838 0.06122765 0.0577765 -0.1089048 0.4930768 0.8631425 
-0.008256895 0.05734316 0.06465552 -0.0038947 0.4727981 0.8811622 
0.0830119 0.05505012 0.06145975 0.0979657 0.4161395 0.904008 
0.1921553 0.04082265 0.05136692 0.1554063 0.4917456 0.8567585 
0.296567 0.02991712 0.03302288 0.2244042 0.5582526 0.798747 
-0.2374206 -0.01254348 0.06604576 -0.2482064 0.2111835 0.9454074 
-0.2554743 -0.008289499 0.05732512 -0.470317 0.2874341 0.8343762 
-0.2702481 -0.01994333 0.04952529 -0.4835801 0.2549372 0.8373514 
-0.3020498 -0.04813656 0.03760889 -0.6508175 0.3880208 0.6525921 
-0.3297619 -0.07159678 0.01834404 -0.754253 0.3287164 0.5683732 
-0.2347997 -0.03071558 0.06465552 -0.3080122 0.03005155 0.9509076 
-0.2538024 -0.02130985 0.05595293 -0.3935451 0.07655698 0.916112 
-0.334104 -0.08504143 0.02522305 -0.637081 0.3140317 0.703926 
-0.3232035 -0.1034305 0.02706468 -0.316189 -0.113717 0.9418561 
-0.3746481 -0.1410432 0.01330665 -0.2374001 -0.1127645 0.9648446 
-0.383446 -0.1361632 0.01330665 -0.4401208 0.07313413 0.8949554 
-0.3927065 -0.1422964 0.007330393 -0.8193165 0.2907326 0.494161 
-0.3947644 -0.1393716 0 -0.9987519 -0.04994645 0 
-0.3475549 -0.08622468 0 -0.8390971 0.5439818 4.34307e-08 
-0.3421743 -0.08252285 0.00917202 -0.7616696 0.4727646 0.4431175 
-0.2736835 -0.04449679 0.05503212 -0.2623649 0.1425513 0.9543813 
-0.2592458 -0.03143809 0.05548349 -0.3330385 0.1819775 0.9251863 
-0.2722667 -0.04968741 0.05548349 -0.3031084 0.09296621 0.9484106 
-0.2971687 -0.05589781 0.04770172 -0.4504702 0.07125846 0.8899432 
-0.2920281 -0.06598156 0.04678091 -0.3887883 -0.1141909 0.9142232 
-0.3169178 -0.1108555 0.02935768 -0.4022095 0.08017448 0.9120305 
-0.3633734 -0.1438099 0.01513022 -0.3147166 0.05108016 0.9478102 
-0.2817867 -0.08663485 0.04883409 -0.4600982 -0.05787514 0.8859798 
-0.2635123 -0.06054246 0.06236251 -0.3080435 -0.06631135 0.9490585 
-0.2235566 -0.07812089 0.06283194 -0.1853612 -0.3454288 0.9199566 
-0.2780507 -0.09705475 0.04952529 -0.2066339 -0.3509174 0.9133233 
-0.2535733 -0.05169364 0.06283194 -0.2943657 0.1850928 0.9375976 
-0.2485363 -0.03555288 0.06236251 -0.3568435 0.200183 0.9124634 
-0.2254629 -0.05680139 0.06971096 -0.2660308 -0.01655594 0.9638223 
-0.3149424 -0.1202233 0.03302288 -0.361818 -0.04007629 0.931387 
-0.3569365 -0.1494176 0.01971623 -0.2137867 -0.2011484 0.9559469 
-0.2739554 -0.1365105 0.03072988 -0.03960742 -0.7933156 0.6075209 
-0.2085679 -0.1249316 0.04035328 -0.01412902 -0.7804671 0.6250371 
-0.3056126 -0.135275 0.01834404 0.05981241 -0.8601828 0.5064663 
-0.3145569 -0.1267051 0.03118126 0.05872329 -0.5510864 0.8323794 
-0.1541868 -0.09078779 0.07796217 -0.2440317 -0.2302509 0.9420366 
-0.1524837 -0.1088836 0.06328332 -0.1545853 -0.90078 0.4058311 
-0.2175374 -0.05561196 0.07292478 -0.2461918 -0.05017384 0.9679216 
-0.1441972 -0.036849 0.08897581 -0.1464787 -0.01276486 0.9891315 
-0.2057385 -0.02437966 0.07245535 -0.2236067 0.1300078 0.96597 
-0.201967 -0.001231015 0.06604576 -0.1710698 0.3739018 0.9115551 
-0.1466034 0.006144197 0.07704135 -0.1978067 0.3319822 0.9223124 
-0.08848222 0.01879796 0.08346899 -0.08347514 0.3461559 0.9344561 
-0.07075861 -0.02823996 0.09217157 -0.008113023 -0.05759506 0.9983071 
-5.730707e-06 0.01178823 0.0866828 0.01988915 0.2926557 0.9560111 
0.009166319 -0.03392562 0.09217157 0.02493849 -0.1118507 0.9934121 
0.08667712 0.009190041 0.08346899 0.07084344 0.3024415 0.9505316 
0.09034231 -0.03347424 0.08850638 0.04191202 -0.1234528 0.9914649 
0.1875692 -0.001823616 0.07933436 0.1385054 0.3081223 0.9412103 
0.1866484 -0.05042807 0.08070655 0.1506065 -0.2444315 0.9578992 
0.2937812 -0.008461411 0.05961813 0.241919 0.2041093 0.9485856 
0.2914422 -0.05270941 0.05136692 0.193205 -0.3204231 0.9273623 
0.3632217 -0.02072042 0.0421949 0.2756455 0.0988759 0.9561607 
0.3594244 -0.06503249 0.03943246 0.2007909 -0.3531825 0.9137533 
0.4124908 -0.0381758 0.02522305 0.255406 0.02728844 0.9664487 
0.4094101 -0.06559552 0.02567443 0.1882138 -0.3237908 0.927219 
0.4486004 -0.04648069 0.01789266 0.004172508 0.129425 0.9915804 
0.4422367 -0.06878935 0.01926485 -0.1693676 -0.2690488 0.9481178 
0.4920332 -0.05023966 0.03302288 0.01666331 0.596537 0.8024126 
-0.08342966 -0.08653965 0.07429697 0.1101517 -0.6787662 0.7260462 
0.01192876 -0.09538539 0.06786934 0.0117409 -0.7152801 0.6987393 
0.08529382 -0.09338363 0.06879015 0.03546009 -0.7374041 0.6745205 
0.1774724 -0.09712888 0.05595293 0.1364056 -0.7881329 0.6001999 
0.2886895 -0.09065758 0.03118126 0.1279398 -0.7887149 0.6012988 
0.3590618 -0.08805794 0.01742323 0.1338317 -0.7847536 0.6051867 
0.4066333 -0.08441845 0.01283722 0.06717304 -0.7466264 0.6618435 
0.4613181 -0.08641848 0.01009283 -0.0414887 -0.8751656 0.4820415 
0.4866822 -0.0838463 0.02601708 -0.1456946 -0.9686515 0.2012148 
-0.1072243 -0.1146411 0.1329943 -0.6098003 0.1871881 0.7701327 
-0.109009 -0.1178803 0.1288597 -0.2202092 -0.9739113 -0.05481649 
-0.06578792 -0.1035416 0.1164919 0.6613973 0.4532607 -0.5975854 
-0.02556666 -0.123977 0.1394219 0.294559 -0.8501087 0.4365205 
-0.0515701 -0.1258876 0.1458315 0.04515829 -0.2688442 0.9621244 
-0.08775243 -0.1208646 0.1444593 -0.2407236 0.1448328 0.9597268 
0.005501125 -0.1192182 0 -0.02491953 -0.9996895 -5.290129e-09 
-0.0812142 -0.1152586 0 0.1133377 -0.9935565 7.933703e-09 
0.1725151 -0.1109781 0 0.05084236 -0.9987067 5.155005e-09 
0.2893566 -0.09920165 0 0.08746276 -0.9961678 5.138291e-09 
0.4037192 -0.09198476 0 0.08890281 -0.9960403 0 
0.4636837 -0.0893551 0 0.04178535 -0.9991266 -1.073085e-08 
-0.2007248 -0.1301851 0 0.158535 -0.9873533 -5.077479e-09 
-0.1370441 -0.122577 0 0.1417156 -0.9899074 7.635445e-09 
-0.2602134 -0.1427252 0 0.006221587 -0.9999807 2.569103e-09 
-0.300878 -0.1393463 0 0.2212704 -0.9752125 1.583644e-08 
-0.3475408 -0.1580069 0 0.3406294 -0.9401977 5.179674e-09 
-0.3528208 -0.1552672 0.01420941 0.2589014 -0.8081685 0.5289931 
-0.3825655 -0.169826 0 -0.1707684 -0.9853112 0 
-0.3781221 -0.1660645 0.008251207 -0.08410161 -0.8140616 0.5746569 
0.6052356 -0.09133791 0.1563757 -0.2823793 -0.01406981 0.9591997 
0.539893 -0.09181076 0.1320735 -0.5226189 0.4883568 0.6988398 
0.5883501 -0.08645497 0.1141989 0.9879433 0.06193919 -0.1418862 
0.5471852 -0.066829 0.01742323 0.2622729 0.9352768 0.2376346 
0.5116577 -0.06073908 0.03774423 0.2151321 0.8517469 0.4777505 
0.5323819 -0.0610218 0 0.3890174 0.9212304 1.203084e-08 
0.5674505 -0.06783026 0.01054421 0.6134254 0.6778793 -0.4052023 
0.5510174 -0.06735434 0 0.5762641 -0.8172634 1.173415e-08 
0.493338 -0.06545592 0.04356709 -0.5987436 0.3219315 0.7333936 
-0.3889332 -0.1522665 0.006879014 -0.7953985 -0.2232253 0.5634819 
-0.3898133 -0.1517404 0 -0.981811 -0.1898604 -7.633635e-09 
-0.3864897 -0.1616732 0.00872064 -0.4984801 -0.2430425 0.8321347 
-0.3898078 -0.1627925 0 -0.8750434 -0.4840445 0 
-0.05131008 -0.127421 0.1430871 0.01652042 -0.9937838 -0.1100951 
-0.0872714 -0.1242401 0.1412455 -0.2657997 -0.9300556 0.2536671 
0.1907831 0.1692309 0 0.9114702 -0.411366 0 
0.08346328 -0.1161715 0 0.04014116 -0.999194 -1.048003e-08 
0.3578115 -0.0962613 0 0.08645482 -0.9962558 5.360999e-09 
0.4907366 -0.08651829 0 0.1483088 -0.9889411 5.106666e-09 
0.5402453 -0.0964575 0.1320735 -0.3633571 -0.8169351 0.4478713 
0.5094468 -0.08802977 0.09446458 -0.6992636 -0.6526577 0.2916648 
0.5091743 -0.08009997 0.09446458 -0.2504274 0.875875 0.4124671 
0.5767606 -0.07699495 0.03898108 0.9951943 -0.01548423 0.09668746 
-0.2363759 0.03338783 0 -0.5202004 0.8540443 -3.846258e-08 
0.07107747 0.178403 -0.01101364 -0.1967879 0.4008746 -0.894748 
-0.002750095 0.1164919 -0.01467884 -0.15379 0.7764913 -0.6110727 
0.1229138 0.2040955 -0.006427635 -0.09506457 0.4747292 -0.8749828 
0.1770251 0.2059191 -0.003723569 0.0982319 0.1566208 -0.9827617 
0.1747321 0.0990686 -0.01176672 0.4133795 0.5620599 -0.7163839 
0.1302442 0.1518078 -0.01197661 0.1669532 0.09206589 -0.981657 
0.1031795 0.113278 -0.02108842 0.1196917 0.3625568 -0.9242437 
0.1495091 0.1728961 -0.007245314 0.1261791 0.02940984 -0.9915714 
-0.3238366 -0.03342669 -0.01375803 -0.718482 0.4791668 -0.5041653 
-0.2869775 -0.005200721 -0.02522305 -0.5845161 0.6774786 -0.4465017 
-0.239528 0.02859507 -0.009623398 -0.5042825 0.8299963 -0.2383386 
-0.2380157 0.02477341 -0.02522305 -0.4872021 0.8172496 -0.3077942 
-0.1681004 0.06315219 -0.03302288 -0.3882986 0.7810256 -0.4891044 
-0.08766669 0.09511308 -0.04035328 -0.1833879 0.7398581 -0.6472858 
-0.008256895 0.08944523 -0.0444879 -0.0124693 0.6071722 -0.7944724 
0.09676995 0.08668279 -0.0481531 0.0911189 0.5879183 -0.803772 
0.1981134 0.06512493 -0.03668808 0.2903822 0.6648718 -0.6882032 
0.2971837 0.04363166 -0.02108842 0.2820805 0.7810358 -0.5571479 
0.3695509 0.006873694 -0.02659524 0.2944572 0.5884675 -0.7529947 
0.4168421 -0.01598687 -0.02155786 0.2971849 0.3897238 -0.8716631 
0.4609119 -0.03064016 -0.01420941 0.1215749 0.4586341 -0.8802694 
0.4949074 -0.03654575 -0.01742323 0.4189622 0.697167 -0.5817463 
0.5074434 -0.04846567 -0.01692829 0.5106692 0.7741281 -0.3740891 
-0.2435355 0.01372758 -0.04035328 -0.4262761 0.721586 -0.5455295 
-0.2144684 0.009011352 -0.05916675 -0.2544999 0.5528802 -0.7934439 
-0.1587634 0.03706644 -0.05724429 -0.2213527 0.5002309 -0.8371212 
-0.08955838 0.06122765 -0.0577765 -0.1089048 0.4930768 -0.8631425 
-0.008256895 0.05734316 -0.06465552 -0.003894693 0.472798 -0.8811622 
0.0830119 0.05505012 -0.06145975 0.09796571 0.4161395 -0.904008 
0.1921553 0.04082265 -0.05136692 0.1554063 0.4917456 -0.8567585 
0.296567 0.02991712 -0.03302288 0.2244042 0.5582526 -0.798747 
-0.2554743 -0.008289499 -0.05732512 -0.4703171 0.287434 -0.8343761 
-0.2374206 -0.01254348 -0.06604576 -0.2482064 0.2111835 -0.9454074 
-0.2702481 -0.01994333 -0.04952529 -0.4835801 0.2549371 -0.8373514 
-0.3020498 -0.04813656 -0.03760889 -0.6508176 0.3880208 -0.6525921 
-0.3297619 -0.07159678 -0.01834404 -0.754253 0.3287164 -0.5683732 
-0.2538024 -0.02130985 -0.05595293 -0.3935451 0.07655698 -0.916112 
-0.2347997 -0.03071558 -0.06465552 -0.3080122 0.03005154 -0.9509076 
-0.334104 -0.08504143 -0.02522305 -0.637081 0.3140317 -0.703926 
-0.383446 -0.1361632 -0.01330665 -0.4401208 0.0731341 -0.8949554 
-0.3746481 -0.1410432 -0.01330665 -0.2374001 -0.1127645 -0.9648448 
-0.3232035 -0.1034305 -0.02706468 -0.3161889 -0.113717 -0.9418561 
-0.3421743 -0.08252285 -0.00917202 -0.7616696 0.4727646 -0.4431174 
-0.3927065 -0.1422964 -0.007330393 -0.8193165 0.2907326 -0.494161 
-0.2722667 -0.04968741 -0.05548349 -0.3031084 0.09296623 -0.9484106 
-0.2592458 -0.03143809 -0.05548349 -0.3330385 0.1819775 -0.9251863 
-0.2736835 -0.04449679 -0.05503212 -0.2623649 0.1425513 -0.9543813 
-0.2971687 -0.05589781 -0.04770172 -0.4504701 0.07125845 -0.8899432 
-0.2920281 -0.06598156 -0.04678091 -0.3887883 -0.1141909 -0.9142232 
-0.3633734 -0.1438099 -0.01513022 -0.2905533 -0.03989442 -0.9560269 
-0.3169178 -0.1108555 -0.02935768 -0.4022095 0.08017451 -0.9120305 
-0.2817867 -0.08663485 -0.04883409 -0.4600982 -0.05787513 -0.8859798 
-0.2635123 -0.06054246 -0.06236251 -0.3080435 -0.06631136 -0.9490585 
-0.2780507 -0.09705475 -0.04952529 -0.2344943 -0.2757307 -0.9321936 
-0.2235566 -0.07812089 -0.06283194 -0.1853612 -0.3454288 -0.9199566 
-0.2535733 -0.05169364 -0.06283194 -0.2943657 0.1850928 -0.9375976 
-0.2485363 -0.03555288 -0.06236251 -0.3568435 0.200183 -0.9124634 
-0.2254629 -0.05680139 -0.06971096 -0.2660308 -0.01655594 -0.9638223 
-0.3569365 -0.1494176 -0.01971623 -0.2407115 -0.1873668 -0.9523401 
-0.3149424 -0.1202233 -0.03302288 -0.361818 -0.04007626 -0.9313869 
-0.245782 -0.08547771 -0.05732512 -0.09120159 -0.3805345 -0.9202585 
-0.2739554 -0.1365105 -0.03072988 -0.02673122 -0.8065738 -0.5905288 
-0.2085679 -0.1249316 -0.04035328 -0.01412901 -0.7804671 -0.6250372 
-0.3145569 -0.1267051 -0.03118126 -0.04867702 -0.5690273 -0.8208766 
-0.3056126 -0.135275 -0.01834404 0.04452813 -0.9309161 -0.3625087 
-0.1524837 -0.1088836 -0.06328332 -0.1545853 -0.90078 -0.4058311 
-0.1541868 -0.09078779 -0.07796217 -0.2440317 -0.2302508 -0.9420366 
-0.1441972 -0.036849 -0.08897581 -0.1464787 -0.01276484 -0.9891315 
-0.2175374 -0.05561196 -0.07292478 -0.2461918 -0.05017385 -0.9679216 
-0.2057385 -0.02437966 -0.07245535 -0.2236067 0.1300078 -0.96597 
-0.201967 -0.001231015 -0.06604576 -0.1710698 0.3739018 -0.9115551 
-0.1466034 0.006144197 -0.07704135 -0.1978067 0.3319822 -0.9223125 
-0.07075861 -0.02823996 -0.09217157 -0.008113033 -0.05759505 -0.9983071 
-0.08848222 0.01879796 -0.08346899 -0.08347514 0.3461559 -0.9344561 
0.009166319 -0.03392562 -0.09217157 0.02493849 -0.1118507 -0.9934121 
-5.730707e-06 0.01178823 -0.0866828 0.01988915 0.2926557 -0.9560111 
0.09034231 -0.03347424 -0.08850638 0.04191202 -0.1234528 -0.9914649 
0.08667712 0.009190041 -0.08346899 0.07084346 0.3024414 -0.9505317 
0.1866484 -0.05042807 -0.08070655 0.1506065 -0.2444315 -0.9578992 
0.1875692 -0.001823616 -0.07933436 0.1385054 0.3081223 -0.9412103 
0.2914422 -0.05270941 -0.05136692 0.193205 -0.3204231 -0.9273623 
0.2937812 -0.008461411 -0.05961813 0.241919 0.2041093 -0.9485856 
0.3594244 -0.06503249 -0.03943246 0.2007909 -0.3531825 -0.9137533 
0.3632217 -0.02072042 -0.0421949 0.2756455 0.09887589 -0.9561607 
0.4094101 -0.06559552 -0.02567443 0.1882138 -0.3237908 -0.927219 
0.4124908 -0.0381758 -0.02522305 0.255406 0.02728843 -0.9664487 
0.4422367 -0.06878935 -0.01926485 -0.1693676 -0.2690488 -0.9481179 
0.4486004 -0.04648069 -0.01789266 0.00417249 0.129425 -0.9915804 
0.4920332 -0.05023966 -0.03302288 0.01666329 0.596537 -0.8024126 
-0.08342966 -0.08653965 -0.07429697 0.1101517 -0.6787661 -0.7260462 
0.01192876 -0.09538539 -0.06786934 0.01174089 -0.7152801 -0.6987393 
0.08529382 -0.09338363 -0.06879015 0.03546009 -0.7374041 -0.6745205 
0.1774724 -0.09712888 -0.05595293 0.1364056 -0.7881329 -0.6001999 
0.2886895 -0.09065758 -0.03118126 0.1279398 -0.7887149 -0.6012987 
0.3590618 -0.08805794 -0.01742323 0.1338317 -0.7847536 -0.6051867 
0.4066333 -0.08441845 -0.01283722 0.06717305 -0.7466264 -0.6618435 
0.4613181 -0.08641848 -0.01009283 -0.0414887 -0.8751656 -0.4820415 
0.4866822 -0.0838463 -0.02601708 -0.1456946 -0.9686515 -0.2012148 
-0.109009 -0.1178803 -0.1288597 -0.2202092 -0.9739112 0.0548165 
-0.1072243 -0.1146411 -0.1329943 -0.6098003 0.1871881 -0.7701327 
-0.06578792 -0.1035416 -0.1164919 0.6613972 0.4532609 0.5975854 
-0.02556666 -0.123977 -0.1394219 0.2945589 -0.8501088 -0.4365205 
-0.08775243 -0.1208646 -0.1444593 -0.2407237 0.1448328 -0.9597268 
-0.0515701 -0.1258876 -0.1458315 0.04515828 -0.2688442 -0.9621244 
-0.3528208 -0.1552672 -0.01420941 0.2589014 -0.8081685 -0.5289931 
-0.3781221 -0.1660645 -0.008251207 -0.153815 -0.7080033 -0.6892549 
0.5883501 -0.08645497 -0.1141989 0.9879433 0.0619392 0.1418861 
0.539893 -0.09181076 -0.1320735 -0.5226189 0.4883569 -0.6988397 
0.6052356 -0.09133791 -0.1563757 -0.2823792 -0.01406981 -0.9591997 
0.5116577 -0.06073908 -0.03774423 0.2151321 0.8517469 -0.4777505 
0.5471852 -0.066829 -0.01742323 0.2622729 0.9352768 -0.2376346 
0.5674505 -0.06783026 -0.01054421 0.6134254 0.6778793 0.4052023 
0.493338 -0.06545592 -0.04356709 -0.5987436 0.3219315 -0.7333936 
-0.3889332 -0.1522665 -0.006879014 -0.7953985 -0.2232253 -0.5634819 
-0.3864897 -0.1616732 -0.00872064 -0.4838085 -0.3111143 -0.8180081 
-0.0872714 -0.1242401 -0.1412455 -0.2657998 -0.9300556 -0.2536671 
-0.05131008 -0.127421 -0.1430871 0.0165204 -0.9937838 0.1100952 
0.5091743 -0.08009997 -0.09446458 -0.2504274 0.875875 -0.4124671 
0.5094468 -0.08802977 -0.09446458 -0.6992636 -0.6526577 -0.2916648 
0.5402453 -0.0964575 -0.1320735 -0.3633572 -0.816935 -0.4478713 
0.5767606 -0.07699495 -0.03898108 0.9951943 -0.01548433 -0.09668746 
0.2118715 0.1903374 0 0.9919595 -0.1265561 -1.473018e-07 
-0.245782 -0.08547771 0.05732512 -0.0912016 -0.3805345 0.9202585 
3 3 2 1 
3 1 0 3 
3 5 4 2 
3 2 3 5 
3 6 4 5 
3 5 7 6 
3 8 6 7 
3 11 10 9 
3 12 13 3 
3 3 0 12 
3 14 5 3 
3 3 13 14 
3 7 5 14 
3 17 16 15 
3 19 18 15 
3 15 16 19 
3 21 160 20 
3 21 23 22 
3 23 21 20 
3 24 21 22 
3 22 25 24 
3 0 1 24 
3 24 25 0 
3 26 0 25 
3 27 12 0 
3 0 26 27 
3 27 28 9 
3 9 12 27 
3 11 9 28 
3 30 11 28 
3 28 29 30 
3 31 30 29 
3 29 32 31 
3 33 31 32 
3 32 34 33 
3 35 33 34 
3 34 36 35 
3 37 35 36 
3 36 38 37 
3 39 37 38 
3 38 40 39 
3 23 19 41 
3 22 23 41 
3 42 22 41 
3 42 43 22 
3 25 22 43 
3 43 44 25 
3 26 25 44 
3 44 45 26 
3 27 26 45 
3 45 46 27 
3 28 27 46 
3 46 47 28 
3 48 29 28 
3 28 47 48 
3 32 29 48 
3 50 49 42 
3 42 41 50 
3 19 51 50 
3 50 41 19 
3 52 51 19 
3 19 16 52 
3 53 52 16 
3 50 55 54 
3 54 49 50 
3 51 55 50 
3 53 56 52 
3 59 58 57 
3 57 56 59 
3 62 61 60 
3 60 63 62 
3 17 63 53 
3 53 16 17 
3 62 63 17 
3 65 51 64 
3 64 66 65 
3 51 52 67 
3 67 64 51 
3 66 64 67 
3 67 68 66 
3 57 68 67 
3 67 56 57 
3 69 57 58 
3 58 70 69 
3 71 68 57 
3 57 69 71 
3 72 66 68 
3 283 73 72 
3 72 71 74 
3 56 53 63 
3 65 66 75 
3 76 65 75 
3 54 76 75 
3 77 54 75 
3 72 77 75 
3 66 72 75 
3 69 70 79 
3 79 78 69 
3 71 69 78 
3 78 74 71 
3 283 74 80 
3 283 81 73 
3 81 283 80 
3 82 80 74 
3 74 83 82 
3 84 73 81 
3 81 85 84 
3 87 86 73 
3 73 84 87 
3 86 77 73 
3 88 54 77 
3 77 86 88 
3 89 42 49 
3 89 49 88 
3 88 49 54 
3 90 88 86 
3 86 87 90 
3 91 90 87 
3 87 92 91 
3 93 91 92 
3 92 94 93 
3 95 93 94 
3 94 96 95 
3 97 95 96 
3 96 98 97 
3 99 97 98 
3 98 100 99 
3 101 99 100 
3 100 102 101 
3 103 101 102 
3 102 104 103 
3 105 103 104 
3 104 106 105 
3 89 88 90 
3 43 89 90 
3 42 89 43 
3 44 43 90 
3 90 91 44 
3 45 44 91 
3 91 93 45 
3 46 45 93 
3 93 95 46 
3 47 46 95 
3 95 97 47 
3 48 47 97 
3 97 99 48 
3 32 48 99 
3 99 101 32 
3 34 32 101 
3 101 103 34 
3 36 34 103 
3 103 105 36 
3 107 38 36 
3 36 105 107 
3 40 38 107 
3 92 87 84 
3 84 108 92 
3 94 92 108 
3 108 109 94 
3 96 94 109 
3 109 110 96 
3 98 96 110 
3 110 111 98 
3 100 98 111 
3 111 112 100 
3 102 100 112 
3 112 113 102 
3 104 102 113 
3 113 114 104 
3 106 104 114 
3 114 115 106 
3 116 106 115 
3 117 84 85 
3 85 118 117 
3 108 84 117 
3 117 119 108 
3 121 120 119 
3 121 119 122 
3 122 119 117 
3 123 109 108 
3 108 124 123 
3 126 112 111 
3 111 125 126 
3 128 115 114 
3 114 127 128 
3 130 85 81 
3 81 129 130 
3 124 108 85 
3 85 130 124 
3 129 81 80 
3 80 131 129 
3 131 80 82 
3 82 132 131 
3 132 82 134 
3 134 133 132 
3 82 83 134 
3 136 135 133 
3 133 134 136 
3 139 138 137 
3 40 141 140 
3 140 142 40 
3 142 140 143 
3 143 144 142 
3 106 145 107 
3 107 105 106 
3 116 145 106 
3 59 56 63 
3 63 60 59 
3 61 147 146 
3 146 60 61 
3 59 60 146 
3 146 58 59 
3 74 78 83 
3 79 134 83 
3 83 78 79 
3 134 79 136 
3 148 136 79 
3 79 70 148 
3 58 146 148 
3 148 70 58 
3 149 135 136 
3 136 148 149 
3 146 147 149 
3 149 148 146 
3 55 51 65 
3 76 54 55 
3 73 77 72 
3 56 67 52 
3 65 76 55 
3 151 150 121 
3 121 122 151 
3 151 122 117 
3 117 118 151 
3 120 121 150 
3 108 119 118 
3 118 85 108 
3 119 120 150 
3 119 151 118 
3 150 151 119 
3 10 13 12 
3 12 9 10 
3 10 152 14 
3 14 13 10 
3 7 152 282 
3 125 111 110 
3 110 153 125 
3 153 110 109 
3 109 123 153 
3 127 114 113 
3 113 154 127 
3 112 126 154 
3 154 113 112 
3 115 128 155 
3 155 116 115 
3 157 156 138 
3 138 158 157 
3 157 158 145 
3 145 116 157 
3 137 138 156 
3 40 142 39 
3 116 155 144 
3 116 144 143 
3 143 159 116 
3 116 159 157 
3 157 159 139 
3 139 156 157 
3 156 139 137 
3 158 138 139 
3 139 159 158 
3 159 143 140 
3 140 158 159 
3 158 140 141 
3 158 141 145 
3 141 40 107 
3 107 145 141 
3 18 19 20 
3 20 160 18 
3 19 23 20 
3 1 2 161 
3 161 162 1 
3 2 4 163 
3 163 161 2 
3 163 4 6 
3 6 164 163 
3 164 6 8 
3 165 10 11 
3 167 162 161 
3 161 166 167 
3 161 163 168 
3 168 166 161 
3 168 163 164 
3 15 169 17 
3 15 18 170 
3 170 169 15 
3 171 160 21 
3 21 172 171 
3 172 21 173 
3 173 21 24 
3 24 174 173 
3 24 1 162 
3 162 174 24 
3 174 162 175 
3 162 167 176 
3 176 175 162 
3 176 167 165 
3 165 177 176 
3 177 165 11 
3 177 11 30 
3 30 178 177 
3 178 30 31 
3 31 179 178 
3 179 31 33 
3 33 180 179 
3 180 33 35 
3 35 181 180 
3 181 35 37 
3 37 182 181 
3 182 37 39 
3 39 183 182 
3 184 170 172 
3 173 185 184 
3 173 184 172 
3 173 186 185 
3 186 173 174 
3 174 187 186 
3 187 174 175 
3 175 188 187 
3 188 175 176 
3 176 189 188 
3 189 176 177 
3 177 190 189 
3 177 178 191 
3 191 190 177 
3 191 178 179 
3 185 193 192 
3 192 184 185 
3 192 194 170 
3 170 184 192 
3 170 194 195 
3 195 169 170 
3 169 195 196 
3 198 197 192 
3 192 193 198 
3 192 197 194 
3 195 199 196 
3 202 201 200 
3 200 199 202 
3 204 61 62 
3 62 203 204 
3 196 203 17 
3 17 169 196 
3 17 203 62 
3 207 194 206 
3 206 205 207 
3 208 195 194 
3 194 207 208 
3 208 207 205 
3 205 209 208 
3 208 209 202 
3 202 199 208 
3 201 202 211 
3 211 210 201 
3 202 209 212 
3 212 211 202 
3 209 205 213 
3 213 221 214 
3 214 212 213 
3 203 196 199 
3 216 205 206 
3 216 206 217 
3 216 217 198 
3 216 198 218 
3 216 218 213 
3 216 213 205 
3 219 210 211 
3 211 220 219 
3 220 211 212 
3 212 214 220 
3 222 214 221 
3 221 223 222 
3 223 221 215 
3 222 225 224 
3 224 214 222 
3 223 215 227 
3 227 226 223 
3 215 229 228 
3 228 227 215 
3 215 218 229 
3 218 198 230 
3 230 229 218 
3 193 230 198 
3 230 193 231 
3 185 231 193 
3 229 230 232 
3 232 228 229 
3 228 232 234 
3 234 233 228 
3 233 234 236 
3 236 235 233 
3 235 236 238 
3 238 237 235 
3 237 238 240 
3 240 239 237 
3 239 240 242 
3 242 241 239 
3 241 242 244 
3 244 243 241 
3 243 244 246 
3 246 245 243 
3 245 246 248 
3 248 247 245 
3 232 230 231 
3 232 231 186 
3 186 231 185 
3 232 186 187 
3 187 234 232 
3 234 187 188 
3 188 236 234 
3 236 188 189 
3 189 238 236 
3 238 189 190 
3 190 240 238 
3 240 190 191 
3 191 242 240 
3 242 191 179 
3 179 244 242 
3 244 179 180 
3 180 246 244 
3 246 180 181 
3 181 248 246 
3 249 248 181 
3 181 182 249 
3 249 182 183 
3 227 228 233 
3 233 250 227 
3 250 233 235 
3 235 251 250 
3 251 235 237 
3 237 252 251 
3 252 237 239 
3 239 253 252 
3 253 239 241 
3 241 254 253 
3 254 241 243 
3 243 255 254 
3 255 243 245 
3 245 256 255 
3 256 245 247 
3 247 257 256 
3 257 247 258 
3 226 227 260 
3 260 259 226 
3 260 227 250 
3 250 261 260 
3 263 260 261 
3 263 261 264 
3 264 261 262 
3 250 251 123 
3 123 124 250 
3 253 254 126 
3 126 125 253 
3 256 257 128 
3 128 127 256 
3 223 226 130 
3 130 129 223 
3 226 250 124 
3 124 130 226 
3 222 223 129 
3 129 131 222 
3 225 222 131 
3 131 132 225 
3 265 225 132 
3 132 133 265 
3 265 224 225 
3 133 135 266 
3 266 265 133 
3 269 268 267 
3 271 270 183 
3 183 142 271 
3 272 271 142 
3 142 144 272 
3 249 273 247 
3 247 248 249 
3 247 273 258 
3 203 199 200 
3 200 204 203 
3 274 147 61 
3 61 204 274 
3 274 204 200 
3 200 201 274 
3 224 220 214 
3 224 265 219 
3 219 220 224 
3 266 219 265 
3 266 275 210 
3 210 219 266 
3 275 274 201 
3 201 210 275 
3 266 135 149 
3 149 275 266 
3 149 147 274 
3 274 275 149 
3 206 194 197 
3 197 198 217 
3 213 218 215 
3 195 208 199 
3 197 217 206 
3 264 277 276 
3 276 263 264 
3 260 263 276 
3 276 259 260 
3 277 264 262 
3 259 261 250 
3 250 226 259 
3 261 276 277 
3 276 261 259 
3 262 261 277 
3 167 166 10 
3 10 165 167 
3 168 152 10 
3 10 166 168 
3 152 164 282 
3 164 152 168 
3 252 253 125 
3 125 153 252 
3 251 252 153 
3 153 123 251 
3 255 256 127 
3 127 154 255 
3 154 126 254 
3 254 255 154 
3 155 128 257 
3 257 258 155 
3 268 280 279 
3 279 278 268 
3 273 278 279 
3 279 258 273 
3 280 268 269 
3 39 142 183 
3 144 155 258 
3 258 281 272 
3 281 258 279 
3 144 258 272 
3 267 281 279 
3 279 280 267 
3 269 267 280 
3 267 268 278 
3 278 281 267 
3 271 272 281 
3 281 278 271 
3 270 271 278 
3 273 270 278 
3 249 183 270 
3 270 273 249 
3 171 170 18 
3 18 160 171 
3 171 172 170 
3 213 212 209 
3 68 71 72 
3 152 7 14 
3 7 282 8 
3 282 164 8 
3 221 213 215 
3 283 72 74 
